#!OML:ASF H:\BreakDance\Project 1\Capture day 1\Session 1\Male.ASF
:FULLY-SPECIFIED
:DEGREES
406
root 17.7553 16.301 0.181469 -39.1864 -87.4073 41.1984
lowerback -10.1905 -0.429304 -1.86416
upperback 3.31546 -0.249162 -0.884511
thorax 9.27806 -0.20335 0.0611823
lowerneck -2.3018 0.606576 -3.19069
upperneck 22.876 -0.160373 2.95277
head 7.37048 -0.367209 1.46229
rclavicle -3.60297e-015 -7.7526e-015
rhumerus -31.665 4.3964 -88.6521
rradius 58.9834
rwrist 3.14926
rhand -36.2318 -20.2892
rfingers 7.12502
rthumb -9.33347 -50.0626
lclavicle -3.60297e-015 -7.7526e-015
lhumerus -28.4965 2.53774 86.2183
lradius 58.7338
lwrist -11.0382
lhand -35.2895 -36.6284
lfingers 7.12502
lthumb -8.42419 -6.81639
rfemur -11.5746 3.86549 9.36298
rtibia 34.4961
rfoot -26.6623 -23.2926
rtoes -10.3481
lfemur -10.8987 1.96252 -11.3297
ltibia 31.2324
lfoot -28.4062 23.0056
ltoes -26.4046
407
root 17.7559 16.3009 0.181397 -39.0353 -87.3951 41.0502
lowerback -10.1747 -0.427574 -1.86377
upperback 3.30098 -0.247048 -0.890128
thorax 9.25287 -0.201893 0.055616
lowerneck -2.28391 0.599659 -3.18226
upperneck 22.8774 -0.172902 2.9565
head 7.36817 -0.372612 1.46116
rclavicle -2.11209e-016 0
rhumerus -31.701 4.3674 -88.6565
rradius 58.9898
rwrist 3.16624
rhand -36.2117 -20.3022
rfingers 7.12502
rthumb -9.31404 -50.0765
lclavicle -2.11209e-016 0
lhumerus -28.5327 2.51209 86.2196
lradius 58.7447
lwrist -11.0117
lhand -35.2558 -36.6617
lfingers 7.12502
lthumb -8.39168 -6.84845
rfemur -11.5691 3.86586 9.36163
rtibia 34.4942
rfoot -26.6993 -23.2715
rtoes -10.2009
lfemur -10.9097 1.95463 -11.3321
ltibia 31.2379
lfoot -28.3974 23.0024
ltoes -26.4453
408
root 17.7564 16.3008 0.181349 -39.0763 -87.3712 41.0968
lowerback -10.1581 -0.426286 -1.87705
upperback 3.28305 -0.243459 -0.899038
thorax 9.22356 -0.200378 0.0545422
lowerneck -2.25989 0.590606 -3.17972
upperneck 22.8767 -0.18825 2.96129
head 7.36415 -0.379826 1.46116
rclavicle 9.31803e-015 1.59028e-014
rhumerus -31.7412 4.33676 -88.6573
rradius 58.9919
rwrist 3.17938
rhand -36.1983 -20.2944
rfingers 7.12502
rthumb -9.30114 -50.0692
lclavicle 9.31803e-015 1.59028e-014
lhumerus -28.5646 2.48876 86.2247
lradius 58.744
lwrist -10.9972
lhand -35.2253 -36.695
lfingers 7.12502
lthumb -8.36222 -6.88048
rfemur -11.5665 3.8517 9.34198
rtibia 34.4952
rfoot -26.736 -23.2406
rtoes -10.0629
lfemur -10.9212 1.9432 -11.3516
ltibia 31.2394
lfoot -28.379 23.0109
ltoes -26.4977
409
root 17.7565 16.3006 0.181245 -39.2786 -87.3454 41.3017
lowerback -10.1462 -0.424233 -1.89706
upperback 3.26684 -0.237643 -0.909874
thorax 9.19891 -0.198154 0.0555385
lowerneck -2.22889 0.580338 -3.17932
upperneck 22.8664 -0.204643 2.96548
head 7.3558 -0.387662 1.46118
rclavicle -4.55962e-015 1.98785e-015
rhumerus -31.7822 4.30875 -88.6585
rradius 58.9898
rwrist 3.18963
rhand -36.1963 -20.2714
rfingers 7.12502
rthumb -9.29921 -50.0463
lclavicle -4.55962e-015 1.98785e-015
lhumerus -28.588 2.47063 86.2303
lradius 58.7322
lwrist -10.9956
lhand -35.2042 -36.7209
lfingers 7.12502
lthumb -8.34181 -6.90566
rfemur -11.5632 3.82967 9.31438
rtibia 34.4996
rfoot -26.7521 -23.2178
rtoes -10.0144
lfemur -10.9233 1.93552 -11.3789
ltibia 31.2361
lfoot -28.3553 23.0261
ltoes -26.5561
410
root 17.756 16.3005 0.18122 -39.6637 -87.3252 41.6865
lowerback -10.1429 -0.421099 -1.92033
upperback 3.25524 -0.229616 -0.921142
thorax 9.18428 -0.195122 0.0581999
lowerneck -2.19723 0.571176 -3.17421
upperneck 22.8464 -0.217907 2.96335
head 7.34403 -0.393898 1.4585
rclavicle 5.56597e-015 1.59028e-015
rhumerus -31.8204 4.28937 -88.6608
rradius 58.9876
rwrist 3.19639
rhand -36.204 -20.2479
rfingers 7.12502
rthumb -9.30664 -50.0225
lclavicle 5.56597e-015 1.59028e-015
lhumerus -28.6038 2.4609 86.2343
lradius 58.7155
lwrist -11.003
lhand -35.1915 -36.7312
lfingers 7.12502
lthumb -8.32962 -6.91543
rfemur -11.5623 3.80287 9.28208
rtibia 34.5053
rfoot -26.7319 -23.2098
rtoes -10.0885
lfemur -10.9157 1.93762 -11.4098
ltibia 31.2304
lfoot -28.3381 23.0423
ltoes -26.6118
411
root 17.7551 16.3002 0.181292 -40.0964 -87.3219 42.117
lowerback -10.144 -0.414531 -1.93371
upperback 3.24675 -0.21828 -0.931066
thorax 9.17558 -0.190006 0.057254
lowerneck -2.16926 0.562904 -3.1596
upperneck 22.8194 -0.228618 2.95424
head 7.33056 -0.398453 1.45207
rclavicle -2.07481e-015 -2.38542e-015
rhumerus -31.8554 4.27753 -88.6668
rradius 58.9869
rwrist 3.19903
rhand -36.2135 -20.2404
rfingers 7.12502
rthumb -9.31583 -50.0146
lclavicle -2.07481e-015 -2.38542e-015
lhumerus -28.621 2.45354 86.2333
lradius 58.7062
lwrist -11.0132
lhand -35.1814 -36.7169
lfingers 7.12502
lthumb -8.31988 -6.90077
rfemur -11.5647 3.78725 9.25931
rtibia 34.5096
rfoot -26.6956 -23.2112
rtoes -10.2032
lfemur -10.9028 1.9516 -11.4304
ltibia 31.2252
lfoot -28.3325 23.0599
ltoes -26.6517
412
root 17.7541 16.2998 0.181378 -40.4504 -87.3415 42.4665
lowerback -10.1434 -0.402662 -1.9273
upperback 3.24032 -0.202778 -0.938279
thorax 9.16785 -0.181829 0.0488013
lowerneck -2.14299 0.55561 -3.12401
upperneck 22.7862 -0.236291 2.93018
head 7.31531 -0.400865 1.43735
rclavicle -3.95085e-015 -6.75868e-015
rhumerus -31.8859 4.26747 -88.6765
rradius 58.9884
rwrist 3.19935
rhand -36.2187 -20.2621
rfingers 7.12502
rthumb -9.32082 -50.0361
lclavicle -3.95085e-015 -6.75868e-015
lhumerus -28.6444 2.44149 86.2279
lradius 58.7099
lwrist -11.022
lhand -35.1778 -36.6879
lfingers 7.12502
lthumb -8.31635 -6.87159
rfemur -11.5685 3.79492 9.25721
rtibia 34.5107
rfoot -26.666 -23.2157
rtoes -10.2855
lfemur -10.8867 1.96944 -11.4307
ltibia 31.2223
lfoot -28.3411 23.0813
ltoes -26.6621
413
root 17.7532 16.2994 0.181433 -40.6973 -87.375 42.7085
lowerback -10.1374 -0.388674 -1.9047
upperback 3.23494 -0.186902 -0.944005
thorax 9.15803 -0.172575 0.0329108
lowerneck -2.1279 0.551577 -3.06947
upperneck 22.7582 -0.238306 2.89342
head 7.3036 -0.399962 1.4157
rclavicle -4.34841e-016 -2.5842e-015
rhumerus -31.9112 4.2564 -88.6904
rradius 58.9955
rwrist 3.19442
rhand -36.2139 -20.303
rfingers 7.12502
rthumb -9.31622 -50.0772
lclavicle -4.34841e-016 -2.5842e-015
lhumerus -28.6742 2.42622 86.219
lradius 58.7256
lwrist -11.0284
lhand -35.1821 -36.6618
lfingers 7.12502
lthumb -8.32047 -6.8457
rfemur -11.5716 3.82444 9.27063
rtibia 34.5085
rfoot -26.6596 -23.2151
rtoes -10.2944
lfemur -10.8712 1.98337 -11.4161
ltibia 31.2217
lfoot -28.3629 23.0961
ltoes -26.6184
414
root 17.7524 16.2992 0.181563 -40.8232 -87.408 42.8312
lowerback -10.1294 -0.376228 -1.87158
upperback 3.23017 -0.1744 -0.951857
thorax 9.14773 -0.164289 0.00823511
lowerneck -2.12926 0.551061 -3.01216
upperneck 22.7419 -0.236298 2.86021
head 7.29853 -0.396581 1.39512
rclavicle 7.01958e-015 7.35503e-015
rhumerus -31.9309 4.24156 -88.7092
rradius 59.0068
rwrist 3.18004
rhand -36.2016 -20.3459
rfingers 7.12502
rthumb -9.30434 -50.1206
lclavicle 7.01958e-015 7.35503e-015
lhumerus -28.7038 2.40903 86.2064
lradius 58.7441
lwrist -11.031
lhand -35.193 -36.6494
lfingers 7.12502
lthumb -8.33099 -6.83371
rfemur -11.5722 3.86019 9.28799
rtibia 34.5041
rfoot -26.6794 -23.2006
rtoes -10.2451
lfemur -10.8593 1.9918 -11.3977
ltibia 31.2223
lfoot -28.3789 23.1012
ltoes -26.5673
415
root 17.7515 16.2989 0.181901 -40.8647 -87.4339 42.8723
lowerback -10.1235 -0.366747 -1.83284
upperback 3.22495 -0.166353 -0.962535
thorax 9.13821 -0.157751 -0.0234274
lowerneck -2.13452 0.554544 -2.96082
upperneck 22.7286 -0.230143 2.83659
head 7.29498 -0.390924 1.37902
rclavicle -3.23025e-016 -4.57205e-015
rhumerus -31.947 4.22536 -88.7307
rradius 59.0178
rwrist 3.15922
rhand -36.1883 -20.373
rfingers 7.12502
rthumb -9.29146 -50.1482
lclavicle -3.23025e-016 -4.57205e-015
lhumerus -28.7252 2.39398 86.1926
lradius 58.7516
lwrist -11.0313
lhand -35.2139 -36.6584
lfingers 7.12502
lthumb -8.35117 -6.84348
rfemur -11.5711 3.88099 9.30118
rtibia 34.4994
rfoot -26.7049 -23.1726
rtoes -10.2012
lfemur -10.851 1.99149 -11.3827
ltibia 31.2228
lfoot -28.3859 23.0989
ltoes -26.5497
416
root 17.7505 16.2988 0.182273 -40.7529 -87.4506 42.7611
lowerback -10.1195 -0.36196 -1.79365
upperback 3.21944 -0.164607 -0.973122
thorax 9.12953 -0.154245 -0.0563859
lowerneck -2.13998 0.561023 -2.9227
upperneck 22.7152 -0.221186 2.82574
head 7.29129 -0.383964 1.36954
rclavicle 1.40392e-015 -1.39149e-014
rhumerus -31.9615 4.21094 -88.7521
rradius 59.0244
rwrist 3.13969
rhand -36.1724 -20.3683
rfingers 7.12502
rthumb -9.27613 -50.1442
lclavicle 1.40392e-015 -1.39149e-014
lhumerus -28.7343 2.38404 86.179
lradius 58.7429
lwrist -11.0317
lhand -35.2429 -36.6839
lfingers 7.12502
lthumb -8.37921 -6.87013
rfemur -11.5657 3.88782 9.31398
rtibia 34.496
rfoot -26.7314 -23.1453
rtoes -10.1584
lfemur -10.8447 1.97916 -11.369
ltibia 31.2223
lfoot -28.3951 23.0868
ltoes -26.5317
417
root 17.7494 16.2989 0.182483 -40.4532 -87.4543 42.4607
lowerback -10.1174 -0.363908 -1.7623
upperback 3.21684 -0.170943 -0.980998
thorax 9.12533 -0.155228 -0.0835251
lowerneck -2.15045 0.567622 -2.90564
upperneck 22.7019 -0.212665 2.82923
head 7.28847 -0.377656 1.36831
rclavicle 4.84538e-015 4.96962e-015
rhumerus -31.9693 4.20074 -88.7682
rradius 59.0255
rwrist 3.13242
rhand -36.15 -20.3398
rfingers 7.12502
rthumb -9.25456 -50.1167
lclavicle 4.84538e-015 4.96962e-015
lhumerus -28.7315 2.38 86.1677
lradius 58.7241
lwrist -11.0291
lhand -35.27 -36.7116
lfingers 7.12502
lthumb -8.40532 -6.89883
rfemur -11.5533 3.89075 9.32813
rtibia 34.4943
rfoot -26.7566 -23.1347
rtoes -10.1101
lfemur -10.8385 1.95611 -11.3572
ltibia 31.2206
lfoot -28.4079 23.0719
ltoes -26.5056
